<svg width="1280" height="640" viewBox="0 0 1280 640" fill="none" xmlns="http://www.w3.org/2000/svg">
<rect width="1280" height="640" fill="#E5E5E5"/>
<rect width="1280" height="640" fill="#F7F176"/>
<path d="M536.45 147.095V182.055C533.23 183.895 529.397 185.352 524.95 186.425C520.503 187.422 515.98 187.92 511.38 187.92C504.787 187.92 498.845 186.885 493.555 184.815C488.342 182.745 483.857 179.908 480.1 176.305C476.343 172.625 473.468 168.293 471.475 163.31C469.482 158.327 468.485 152.883 468.485 146.98C468.485 140.463 469.635 134.522 471.935 129.155C474.312 123.712 477.493 119.035 481.48 115.125C485.543 111.215 490.182 108.187 495.395 106.04C500.685 103.817 506.282 102.705 512.185 102.705C516.172 102.705 520.35 103.242 524.72 104.315C529.09 105.312 532.885 106.768 536.105 108.685L530.01 118.92C528.86 118.23 527.518 117.617 525.985 117.08C524.528 116.543 522.995 116.083 521.385 115.7C519.775 115.317 518.165 115.048 516.555 114.895C514.945 114.665 513.412 114.55 511.955 114.55C507.892 114.55 503.982 115.355 500.225 116.965C496.468 118.575 493.172 120.798 490.335 123.635C487.498 126.472 485.237 129.807 483.55 133.64C481.863 137.473 481.02 141.613 481.02 146.06C481.02 150.123 481.748 153.957 483.205 157.56C484.738 161.163 486.847 164.345 489.53 167.105C492.213 169.865 495.433 172.05 499.19 173.66C502.947 175.27 507.087 176.075 511.61 176.075C513.373 176.075 515.443 175.922 517.82 175.615C520.273 175.232 522.612 174.618 524.835 173.775V157.905H508.62V147.095H536.45ZM547.125 120.53C547.125 118.69 547.777 117.157 549.08 115.93C550.46 114.703 551.917 114.09 553.45 114.09C554.984 114.09 556.402 114.703 557.705 115.93C559.009 117.157 559.66 118.69 559.66 120.53C559.66 122.37 559.009 123.903 557.705 125.13C556.402 126.28 554.984 126.855 553.45 126.855C551.917 126.855 550.46 126.28 549.08 125.13C547.777 123.903 547.125 122.37 547.125 120.53ZM558.165 187H548.39V138.93H558.165V187ZM576.114 117.77H585.889V139.045H598.769V147.785H585.889V187H576.114V147.785H567.489V139.045H576.114V117.77ZM608.102 187V103.625H620.637V139.045H662.382V103.625H675.032C675.032 104.622 675.032 106.5 675.032 109.26C675.032 111.943 675.032 115.163 675.032 118.92C675.032 122.677 675.032 126.855 675.032 131.455C675.032 135.978 674.994 140.617 674.917 145.37C674.917 150.047 674.917 154.685 674.917 159.285C674.917 163.808 674.917 167.948 674.917 171.705C674.917 175.462 674.917 178.72 674.917 181.48C674.917 184.163 674.917 186.003 674.917 187H662.382V151.005H620.637V187H608.102ZM735.864 188.035H727.584L726.434 174.695C724.671 178.605 722.179 181.825 718.959 184.355C715.816 186.885 711.791 188.15 706.884 188.15C701.978 188.15 698.068 186.847 695.154 184.24C692.318 181.557 690.823 178.068 690.669 173.775V138.93H700.444V169.405C700.598 171.782 701.441 173.813 702.974 175.5C704.584 177.187 707.038 178.145 710.334 178.375C712.634 178.375 714.743 177.992 716.659 177.225C718.576 176.382 720.224 175.27 721.604 173.89C722.984 172.51 724.058 170.862 724.824 168.945C725.591 167.028 725.974 164.92 725.974 162.62V138.93H735.864V188.035ZM801.045 163.08C801.045 166.683 800.432 170.018 799.205 173.085C797.979 176.152 796.254 178.797 794.03 181.02C791.807 183.243 789.124 185.007 785.98 186.31C782.914 187.537 779.54 188.15 775.86 188.15C773.944 188.15 772.104 187.92 770.34 187.46C768.654 187.077 767.082 186.54 765.625 185.85C764.169 185.083 762.904 184.278 761.83 183.435C760.757 182.515 759.952 181.595 759.415 180.675C759.415 181.058 759.415 181.48 759.415 181.94C759.492 182.323 759.53 182.707 759.53 183.09V187H749.64V97.645H759.53V145.945C760.144 145.025 760.949 144.105 761.945 143.185C763.019 142.188 764.245 141.307 765.625 140.54C767.082 139.697 768.692 139.007 770.455 138.47C772.219 137.933 774.174 137.665 776.32 137.665C780 137.665 783.335 138.278 786.325 139.505C789.392 140.655 791.999 142.342 794.145 144.565C796.369 146.712 798.055 149.357 799.205 152.5C800.432 155.643 801.045 159.17 801.045 163.08ZM790.35 162.85C790.35 160.627 790.005 158.595 789.315 156.755C788.625 154.838 787.629 153.19 786.325 151.81C785.022 150.43 783.45 149.357 781.61 148.59C779.77 147.747 777.7 147.325 775.4 147.325C773.1 147.325 770.954 147.747 768.96 148.59C767.044 149.357 765.395 150.43 764.015 151.81C762.635 153.19 761.524 154.838 760.68 156.755C759.914 158.595 759.53 160.627 759.53 162.85C759.53 165.073 759.914 167.143 760.68 169.06C761.524 170.977 762.635 172.625 764.015 174.005C765.395 175.385 767.044 176.497 768.96 177.34C770.954 178.107 773.1 178.49 775.4 178.49C777.7 178.49 779.77 178.107 781.61 177.34C783.45 176.497 785.022 175.385 786.325 174.005C787.629 172.548 788.625 170.9 789.315 169.06C790.005 167.143 790.35 165.073 790.35 162.85ZM893.219 187C892.835 186.157 892.299 184.93 891.609 183.32C890.919 181.71 890.114 179.87 889.194 177.8C888.35 175.653 887.392 173.353 886.319 170.9C885.322 168.37 884.287 165.763 883.214 163.08H853.774L843.884 187H831.464L868.609 99.715C869.069 100.788 869.874 102.743 871.024 105.58C872.25 108.417 873.669 111.828 875.279 115.815C876.965 119.725 878.805 124.095 880.799 128.925C882.869 133.678 884.939 138.508 887.009 143.415C889.155 148.322 891.225 153.152 893.219 157.905C895.289 162.658 897.167 167.028 898.854 171.015C900.54 175.002 901.959 178.413 903.109 181.25C904.335 184.01 905.179 185.927 905.639 187H893.219ZM858.144 152.5H878.959C877.885 149.97 876.85 147.555 875.854 145.255C874.934 142.878 874.052 140.732 873.209 138.815C872.442 136.822 871.752 135.097 871.139 133.64C870.525 132.183 870.065 131.033 869.759 130.19C869.682 130.037 869.49 129.5 869.184 128.58C868.954 127.66 868.762 126.817 868.609 126.05C868.455 126.817 868.225 127.66 867.919 128.58C867.612 129.5 867.42 130.037 867.344 130.19L858.144 152.5ZM943.671 175.155C944.745 176.458 945.741 177.723 946.661 178.95C947.658 180.1 948.655 181.327 949.651 182.63C947.505 184.317 945.09 185.658 942.406 186.655C939.723 187.652 936.81 188.15 933.666 188.15C930.14 188.15 926.805 187.498 923.661 186.195C920.595 184.815 917.911 182.975 915.611 180.675C913.311 178.375 911.471 175.692 910.091 172.625C908.788 169.558 908.136 166.3 908.136 162.85C908.136 159.4 908.788 156.142 910.091 153.075C911.471 150.008 913.311 147.363 915.611 145.14C917.911 142.84 920.595 141.038 923.661 139.735C926.805 138.355 930.14 137.665 933.666 137.665C936.886 137.665 939.838 138.163 942.521 139.16C945.281 140.157 947.773 141.498 949.996 143.185L943.671 150.66C942.368 149.587 940.873 148.782 939.186 148.245C937.5 147.632 935.66 147.325 933.666 147.325C931.366 147.325 929.258 147.747 927.341 148.59C925.425 149.357 923.738 150.43 922.281 151.81C920.901 153.19 919.828 154.838 919.061 156.755C918.295 158.595 917.911 160.627 917.911 162.85C917.911 165.073 918.295 167.143 919.061 169.06C919.828 170.9 920.901 172.548 922.281 174.005C923.738 175.385 925.425 176.497 927.341 177.34C929.258 178.107 931.366 178.49 933.666 178.49C935.66 178.49 937.5 178.222 939.186 177.685C940.873 177.072 942.368 176.228 943.671 175.155ZM963.453 117.77H973.228V139.045H986.108V147.785H973.228V187H963.453V147.785H954.828V139.045H963.453V117.77ZM992.975 120.53C992.975 118.69 993.627 117.157 994.93 115.93C996.31 114.703 997.767 114.09 999.3 114.09C1000.83 114.09 1002.25 114.703 1003.55 115.93C1004.86 117.157 1005.51 118.69 1005.51 120.53C1005.51 122.37 1004.86 123.903 1003.55 125.13C1002.25 126.28 1000.83 126.855 999.3 126.855C997.767 126.855 996.31 126.28 994.93 125.13C993.627 123.903 992.975 122.37 992.975 120.53ZM1004.01 187H994.24V138.93H1004.01V187ZM1014.49 162.85C1014.49 159.4 1015.14 156.142 1016.44 153.075C1017.82 150.008 1019.66 147.363 1021.96 145.14C1024.26 142.84 1026.95 141.038 1030.01 139.735C1033.16 138.355 1036.53 137.665 1040.13 137.665C1043.74 137.665 1047.07 138.355 1050.14 139.735C1053.28 141.038 1055.97 142.84 1058.19 145.14C1060.49 147.363 1062.25 150.008 1063.48 153.075C1064.78 156.142 1065.43 159.4 1065.43 162.85C1065.43 166.3 1064.78 169.558 1063.48 172.625C1062.25 175.692 1060.49 178.375 1058.19 180.675C1055.97 182.975 1053.28 184.815 1050.14 186.195C1047.07 187.498 1043.7 188.15 1040.02 188.15C1036.49 188.15 1033.16 187.537 1030.01 186.31C1026.95 185.083 1024.26 183.358 1021.96 181.135C1019.66 178.912 1017.82 176.267 1016.44 173.2C1015.14 170.057 1014.49 166.607 1014.49 162.85ZM1024.26 162.965C1024.26 165.112 1024.65 167.143 1025.41 169.06C1026.26 170.9 1027.37 172.548 1028.75 174.005C1030.21 175.385 1031.85 176.497 1033.69 177.34C1035.61 178.107 1037.64 178.49 1039.79 178.49C1041.94 178.49 1043.97 178.107 1045.88 177.34C1047.8 176.497 1049.45 175.385 1050.83 174.005C1052.29 172.548 1053.44 170.9 1054.28 169.06C1055.12 167.143 1055.54 165.112 1055.54 162.965C1055.54 160.818 1055.12 158.787 1054.28 156.87C1053.44 154.953 1052.29 153.305 1050.83 151.925C1049.45 150.468 1047.8 149.357 1045.88 148.59C1043.97 147.747 1041.94 147.325 1039.79 147.325C1037.64 147.325 1035.61 147.747 1033.69 148.59C1031.85 149.357 1030.21 150.468 1028.75 151.925C1027.37 153.305 1026.26 154.953 1025.41 156.87C1024.65 158.787 1024.26 160.818 1024.26 162.965ZM1075.89 138.93H1084.51C1084.66 141.307 1084.78 143.492 1084.86 145.485C1085.01 147.402 1085.16 149.318 1085.32 151.235C1087.08 147.095 1089.57 143.798 1092.79 141.345C1096.09 138.892 1100.11 137.665 1104.87 137.665C1109.7 137.665 1113.57 139.007 1116.48 141.69C1119.39 144.373 1120.93 147.823 1121.08 152.04V187H1111.19V156.525C1111.04 154.072 1110.19 152.002 1108.66 150.315C1107.13 148.552 1104.71 147.593 1101.42 147.44C1099.12 147.44 1097.01 147.862 1095.09 148.705C1093.17 149.472 1091.53 150.545 1090.15 151.925C1088.77 153.305 1087.65 154.953 1086.81 156.87C1086.04 158.787 1085.66 160.895 1085.66 163.195V187H1075.89V138.93ZM1161.19 143.185L1156.02 150.085C1155.94 150.008 1155.67 149.817 1155.21 149.51C1154.75 149.203 1154.14 148.897 1153.37 148.59C1152.68 148.283 1151.84 148.015 1150.84 147.785C1149.92 147.478 1148.96 147.325 1147.97 147.325C1146.66 147.325 1145.36 147.632 1144.06 148.245C1142.83 148.858 1142.22 150.008 1142.22 151.695C1142.22 153.152 1142.71 154.34 1143.71 155.26C1144.78 156.18 1146.09 157.023 1147.62 157.79C1149.15 158.48 1150.8 159.208 1152.57 159.975C1154.41 160.742 1156.09 161.7 1157.63 162.85C1159.16 163.923 1160.42 165.303 1161.42 166.99C1162.49 168.6 1163.03 170.67 1163.03 173.2C1163.03 177.493 1161.54 181.058 1158.55 183.895C1155.63 186.655 1151.61 188.035 1146.47 188.035C1143.48 188.035 1140.53 187.537 1137.62 186.54C1134.78 185.467 1132.48 183.933 1130.72 181.94C1131.25 181.403 1131.83 180.713 1132.44 179.87C1133.13 179.027 1133.78 178.222 1134.4 177.455C1135.09 176.688 1135.62 176.075 1136.01 175.615C1136.47 175.078 1136.73 174.81 1136.81 174.81C1136.81 174.887 1137.08 175.117 1137.62 175.5C1138.23 175.883 1139 176.305 1139.92 176.765C1140.84 177.148 1141.87 177.532 1143.02 177.915C1144.17 178.222 1145.32 178.375 1146.47 178.375C1148.31 178.375 1149.88 177.915 1151.19 176.995C1152.49 176.075 1153.14 174.848 1153.14 173.315C1153.14 171.935 1152.6 170.862 1151.53 170.095C1150.53 169.252 1149.27 168.485 1147.74 167.795C1146.2 167.105 1144.52 166.415 1142.68 165.725C1140.84 164.958 1139.15 164 1137.62 162.85C1136.08 161.7 1134.78 160.282 1133.71 158.595C1132.71 156.832 1132.21 154.57 1132.21 151.81C1132.21 149.203 1132.67 147.018 1133.59 145.255C1134.59 143.492 1135.81 142.073 1137.27 141C1138.8 139.85 1140.49 139.045 1142.33 138.585C1144.17 138.048 1145.93 137.78 1147.62 137.78C1149.84 137.78 1152.22 138.24 1154.75 139.16C1157.28 140.08 1159.43 141.422 1161.19 143.185ZM466.76 321.475V311.815H474.925V300.66C474.925 290.617 477.263 283.18 481.94 278.35C486.693 273.443 493.402 270.875 502.065 270.645V280.075C496.085 280.382 491.715 282.298 488.955 285.825C486.195 289.352 484.815 294.373 484.815 300.89V311.815H499.995V321.475H484.815V360H474.925V321.475H466.76ZM503.615 335.85C503.615 332.4 504.266 329.142 505.57 326.075C506.95 323.008 508.79 320.363 511.09 318.14C513.39 315.84 516.073 314.038 519.14 312.735C522.283 311.355 525.656 310.665 529.26 310.665C532.863 310.665 536.198 311.355 539.265 312.735C542.408 314.038 545.091 315.84 547.315 318.14C549.615 320.363 551.378 323.008 552.605 326.075C553.908 329.142 554.56 332.4 554.56 335.85C554.56 339.3 553.908 342.558 552.605 345.625C551.378 348.692 549.615 351.375 547.315 353.675C545.091 355.975 542.408 357.815 539.265 359.195C536.198 360.498 532.825 361.15 529.145 361.15C525.618 361.15 522.283 360.537 519.14 359.31C516.073 358.083 513.39 356.358 511.09 354.135C508.79 351.912 506.95 349.267 505.57 346.2C504.266 343.057 503.615 339.607 503.615 335.85ZM513.39 335.965C513.39 338.112 513.773 340.143 514.54 342.06C515.383 343.9 516.495 345.548 517.875 347.005C519.331 348.385 520.98 349.497 522.82 350.34C524.736 351.107 526.768 351.49 528.915 351.49C531.061 351.49 533.093 351.107 535.01 350.34C536.926 349.497 538.575 348.385 539.955 347.005C541.411 345.548 542.561 343.9 543.405 342.06C544.248 340.143 544.67 338.112 544.67 335.965C544.67 333.818 544.248 331.787 543.405 329.87C542.561 327.953 541.411 326.305 539.955 324.925C538.575 323.468 536.926 322.357 535.01 321.59C533.093 320.747 531.061 320.325 528.915 320.325C526.768 320.325 524.736 320.747 522.82 321.59C520.98 322.357 519.331 323.468 517.875 324.925C516.495 326.305 515.383 327.953 514.54 329.87C513.773 331.787 513.39 333.818 513.39 335.965ZM591.461 323.315C589.315 323.315 587.245 323.622 585.251 324.235C583.258 324.772 581.456 325.615 579.846 326.765C578.313 327.915 577.086 329.372 576.166 331.135C575.246 332.822 574.786 334.777 574.786 337V360H565.011V311.93H573.636C573.79 314.307 573.905 316.492 573.981 318.485C574.135 320.402 574.288 322.318 574.441 324.235C575.438 322.165 576.741 320.287 578.351 318.6C579.961 316.913 581.686 315.495 583.526 314.345C585.366 313.195 587.168 312.313 588.931 311.7C590.695 311.01 592.266 310.665 593.646 310.665L591.461 323.315ZM470.9 443.645H480.675V496.545C482.362 492.712 484.738 489.645 487.805 487.345C490.872 484.968 494.82 483.742 499.65 483.665C504.557 483.588 508.467 484.892 511.38 487.575C514.37 490.258 515.942 493.747 516.095 498.04V533H506.205V502.525C506.052 500.072 505.208 498.002 503.675 496.315C502.142 494.552 499.727 493.593 496.43 493.44C494.13 493.44 492.022 493.862 490.105 494.705C488.188 495.472 486.54 496.545 485.16 497.925C483.78 499.305 482.668 500.953 481.825 502.87C481.058 504.787 480.675 506.895 480.675 509.195V533H470.9V443.645ZM574.146 534.035H565.866L564.716 520.695C562.952 524.605 560.461 527.825 557.241 530.355C554.097 532.885 550.072 534.15 545.166 534.15C540.259 534.15 536.349 532.847 533.436 530.24C530.599 527.557 529.104 524.068 528.951 519.775V484.93H538.726V515.405C538.879 517.782 539.722 519.813 541.256 521.5C542.866 523.187 545.319 524.145 548.616 524.375C550.916 524.375 553.024 523.992 554.941 523.225C556.857 522.382 558.506 521.27 559.886 519.89C561.266 518.51 562.339 516.862 563.106 514.945C563.872 513.028 564.256 510.92 564.256 508.62V484.93H574.146V534.035ZM584.701 509.08C584.701 505.477 585.353 502.142 586.656 499.075C587.96 495.932 589.723 493.248 591.946 491.025C594.17 488.725 596.776 486.923 599.766 485.62C602.756 484.317 605.938 483.665 609.311 483.665C611.918 483.665 614.218 484.01 616.211 484.7C618.281 485.39 620.006 486.195 621.386 487.115C622.766 488.035 623.84 488.955 624.606 489.875C625.45 490.718 625.986 491.332 626.216 491.715C626.216 490.642 626.293 489.53 626.446 488.38C626.6 487.153 626.676 486.003 626.676 484.93H636.106V530.815C636.106 538.788 633.768 544.998 629.091 549.445C624.415 553.892 618.09 556.115 610.116 556.115C607.356 556.115 604.865 555.808 602.641 555.195C600.495 554.658 598.501 553.93 596.661 553.01C594.898 552.09 593.25 551.017 591.716 549.79C590.26 548.563 588.803 547.298 587.346 545.995L593.671 539.325C596.048 541.548 598.463 543.312 600.916 544.615C603.446 545.918 606.436 546.57 609.886 546.57C615.023 546.57 619.01 545.343 621.846 542.89C624.683 540.437 626.14 537.025 626.216 532.655V529.32C626.216 528.707 626.293 528.055 626.446 527.365C626.6 526.598 626.676 526.023 626.676 525.64C625.986 526.56 625.105 527.557 624.031 528.63C623.035 529.627 621.846 530.547 620.466 531.39C619.086 532.157 617.476 532.808 615.636 533.345C613.796 533.882 611.726 534.15 609.426 534.15C605.823 534.15 602.526 533.498 599.536 532.195C596.546 530.892 593.94 529.128 591.716 526.905C589.493 524.605 587.768 521.96 586.541 518.97C585.315 515.903 584.701 512.607 584.701 509.08ZM594.591 508.85C594.591 511.073 594.975 513.143 595.741 515.06C596.585 516.977 597.696 518.625 599.076 520.005C600.456 521.385 602.105 522.497 604.021 523.34C605.938 524.107 608.046 524.49 610.346 524.49C612.646 524.49 614.755 524.107 616.671 523.34C618.665 522.497 620.351 521.385 621.731 520.005C623.188 518.548 624.3 516.9 625.066 515.06C625.833 513.143 626.216 511.073 626.216 508.85C626.216 506.627 625.833 504.595 625.066 502.755C624.3 500.838 623.188 499.19 621.731 497.81C620.351 496.43 618.665 495.357 616.671 494.59C614.755 493.747 612.646 493.325 610.346 493.325C608.046 493.325 605.938 493.747 604.021 494.59C602.105 495.357 600.456 496.43 599.076 497.81C597.696 499.19 596.585 500.838 595.741 502.755C594.975 504.595 594.591 506.627 594.591 508.85ZM646.579 508.85C646.579 505.4 647.23 502.142 648.534 499.075C649.914 496.008 651.754 493.363 654.054 491.14C656.354 488.84 659.037 487.038 662.104 485.735C665.247 484.355 668.62 483.665 672.224 483.665C675.827 483.665 679.162 484.355 682.229 485.735C685.372 487.038 688.055 488.84 690.279 491.14C692.579 493.363 694.342 496.008 695.569 499.075C696.872 502.142 697.524 505.4 697.524 508.85C697.524 512.3 696.872 515.558 695.569 518.625C694.342 521.692 692.579 524.375 690.279 526.675C688.055 528.975 685.372 530.815 682.229 532.195C679.162 533.498 675.789 534.15 672.109 534.15C668.582 534.15 665.247 533.537 662.104 532.31C659.037 531.083 656.354 529.358 654.054 527.135C651.754 524.912 649.914 522.267 648.534 519.2C647.23 516.057 646.579 512.607 646.579 508.85ZM656.354 508.965C656.354 511.112 656.737 513.143 657.504 515.06C658.347 516.9 659.459 518.548 660.839 520.005C662.295 521.385 663.944 522.497 665.784 523.34C667.7 524.107 669.732 524.49 671.879 524.49C674.025 524.49 676.057 524.107 677.974 523.34C679.89 522.497 681.539 521.385 682.919 520.005C684.375 518.548 685.525 516.9 686.369 515.06C687.212 513.143 687.634 511.112 687.634 508.965C687.634 506.818 687.212 504.787 686.369 502.87C685.525 500.953 684.375 499.305 682.919 497.925C681.539 496.468 679.89 495.357 677.974 494.59C676.057 493.747 674.025 493.325 671.879 493.325C669.732 493.325 667.7 493.747 665.784 494.59C663.944 495.357 662.295 496.468 660.839 497.925C659.459 499.305 658.347 500.953 657.504 502.87C656.737 504.787 656.354 506.818 656.354 508.965ZM707.4 513.105V502.87H728.79V513.105H707.4ZM751.894 533H742.119V443.645H751.894V533ZM764.547 466.53C764.547 464.69 765.199 463.157 766.502 461.93C767.882 460.703 769.339 460.09 770.872 460.09C772.405 460.09 773.824 460.703 775.127 461.93C776.43 463.157 777.082 464.69 777.082 466.53C777.082 468.37 776.43 469.903 775.127 471.13C773.824 472.28 772.405 472.855 770.872 472.855C769.339 472.855 767.882 472.28 766.502 471.13C765.199 469.903 764.547 468.37 764.547 466.53ZM775.587 533H765.812V484.93H775.587V533ZM789.396 484.93H798.021C798.174 487.307 798.289 489.492 798.366 491.485C798.519 493.402 798.673 495.318 798.826 497.235C800.589 493.095 803.081 489.798 806.301 487.345C809.598 484.892 813.623 483.665 818.376 483.665C823.206 483.665 827.078 485.007 829.991 487.69C832.904 490.373 834.438 493.823 834.591 498.04V533H824.701V502.525C824.548 500.072 823.704 498.002 822.171 496.315C820.638 494.552 818.223 493.593 814.926 493.44C812.626 493.44 810.518 493.862 808.601 494.705C806.684 495.472 805.036 496.545 803.656 497.925C802.276 499.305 801.164 500.953 800.321 502.87C799.554 504.787 799.171 506.895 799.171 509.195V533H789.396V484.93ZM882.062 483.665L887.927 489.53C885.014 492.213 882.215 494.82 879.532 497.35C876.925 499.88 874.165 502.525 871.252 505.285C874.702 509.885 878.075 514.523 881.372 519.2C884.669 523.8 888.004 528.4 891.377 533H880.107C877.5 529.397 874.855 525.87 872.172 522.42C869.565 518.893 866.959 515.328 864.352 511.725L857.682 517.82V533H847.907V443.645H857.682V506.32C861.975 502.41 866.077 498.653 869.987 495.05C873.897 491.37 877.922 487.575 882.062 483.665ZM897.083 513.105V502.87H918.473V513.105H897.083ZM963.886 521.155C964.959 522.458 965.956 523.723 966.876 524.95C967.873 526.1 968.869 527.327 969.866 528.63C967.719 530.317 965.304 531.658 962.621 532.655C959.938 533.652 957.024 534.15 953.881 534.15C950.354 534.15 947.019 533.498 943.876 532.195C940.809 530.815 938.126 528.975 935.826 526.675C933.526 524.375 931.686 521.692 930.306 518.625C929.003 515.558 928.351 512.3 928.351 508.85C928.351 505.4 929.003 502.142 930.306 499.075C931.686 496.008 933.526 493.363 935.826 491.14C938.126 488.84 940.809 487.038 943.876 485.735C947.019 484.355 950.354 483.665 953.881 483.665C957.101 483.665 960.053 484.163 962.736 485.16C965.496 486.157 967.988 487.498 970.211 489.185L963.886 496.66C962.583 495.587 961.088 494.782 959.401 494.245C957.714 493.632 955.874 493.325 953.881 493.325C951.581 493.325 949.473 493.747 947.556 494.59C945.639 495.357 943.953 496.43 942.496 497.81C941.116 499.19 940.043 500.838 939.276 502.755C938.509 504.595 938.126 506.627 938.126 508.85C938.126 511.073 938.509 513.143 939.276 515.06C940.043 516.9 941.116 518.548 942.496 520.005C943.953 521.385 945.639 522.497 947.556 523.34C949.473 524.107 951.581 524.49 953.881 524.49C955.874 524.49 957.714 524.222 959.401 523.685C961.088 523.072 962.583 522.228 963.886 521.155ZM979.528 443.645H989.303V496.545C990.99 492.712 993.366 489.645 996.433 487.345C999.5 484.968 1003.45 483.742 1008.28 483.665C1013.18 483.588 1017.09 484.892 1020.01 487.575C1023 490.258 1024.57 493.747 1024.72 498.04V533H1014.83V502.525C1014.68 500.072 1013.84 498.002 1012.3 496.315C1010.77 494.552 1008.35 493.593 1005.06 493.44C1002.76 493.44 1000.65 493.862 998.733 494.705C996.816 495.472 995.168 496.545 993.788 497.925C992.408 499.305 991.296 500.953 990.453 502.87C989.686 504.787 989.303 506.895 989.303 509.195V533H979.528V443.645ZM1078.75 527.365C1076.45 529.435 1073.65 531.083 1070.35 532.31C1067.06 533.537 1063.68 534.15 1060.23 534.15C1056.71 534.15 1053.37 533.498 1050.23 532.195C1047.16 530.815 1044.48 529.013 1042.18 526.79C1039.88 524.49 1038.04 521.807 1036.66 518.74C1035.36 515.673 1034.7 512.415 1034.7 508.965C1034.7 505.515 1035.36 502.257 1036.66 499.19C1038.04 496.123 1039.88 493.44 1042.18 491.14C1044.48 488.84 1047.12 487.038 1050.11 485.735C1053.18 484.355 1056.44 483.665 1059.89 483.665C1065.33 483.665 1070.05 485.313 1074.03 488.61C1078.1 491.83 1081.01 496.085 1082.77 501.375C1080.4 502.218 1077.68 503.253 1074.61 504.48C1071.54 505.707 1068.36 507.01 1065.06 508.39C1061.77 509.693 1058.47 510.997 1055.17 512.3C1051.88 513.603 1048.81 514.792 1045.97 515.865C1047.28 518.472 1049.16 520.58 1051.61 522.19C1054.14 523.723 1056.94 524.49 1060 524.49C1062.07 524.49 1064.14 524.107 1066.21 523.34C1068.36 522.573 1070.09 521.538 1071.39 520.235L1078.75 527.365ZM1070.47 499.075C1069.55 497.158 1068.09 495.74 1066.1 494.82C1064.11 493.823 1062.07 493.325 1060 493.325C1057.78 493.325 1055.71 493.747 1053.79 494.59C1051.95 495.433 1050.34 496.583 1048.96 498.04C1047.58 499.42 1046.47 501.03 1045.63 502.87C1044.86 504.71 1044.48 506.588 1044.48 508.505C1044.48 508.888 1044.48 509.157 1044.48 509.31C1044.56 509.463 1044.59 509.578 1044.59 509.655C1046.59 508.888 1048.73 508.045 1051.03 507.125C1053.41 506.128 1055.75 505.17 1058.05 504.25C1060.35 503.253 1062.57 502.333 1064.72 501.49C1066.87 500.57 1068.78 499.765 1070.47 499.075ZM1123.47 521.155C1124.54 522.458 1125.54 523.723 1126.46 524.95C1127.46 526.1 1128.45 527.327 1129.45 528.63C1127.3 530.317 1124.89 531.658 1122.21 532.655C1119.52 533.652 1116.61 534.15 1113.47 534.15C1109.94 534.15 1106.6 533.498 1103.46 532.195C1100.39 530.815 1097.71 528.975 1095.41 526.675C1093.11 524.375 1091.27 521.692 1089.89 518.625C1088.59 515.558 1087.94 512.3 1087.94 508.85C1087.94 505.4 1088.59 502.142 1089.89 499.075C1091.27 496.008 1093.11 493.363 1095.41 491.14C1097.71 488.84 1100.39 487.038 1103.46 485.735C1106.6 484.355 1109.94 483.665 1113.47 483.665C1116.69 483.665 1119.64 484.163 1122.32 485.16C1125.08 486.157 1127.57 487.498 1129.8 489.185L1123.47 496.66C1122.17 495.587 1120.67 494.782 1118.99 494.245C1117.3 493.632 1115.46 493.325 1113.47 493.325C1111.17 493.325 1109.06 493.747 1107.14 494.59C1105.22 495.357 1103.54 496.43 1102.08 497.81C1100.7 499.19 1099.63 500.838 1098.86 502.755C1098.09 504.595 1097.71 506.627 1097.71 508.85C1097.71 511.073 1098.09 513.143 1098.86 515.06C1099.63 516.9 1100.7 518.548 1102.08 520.005C1103.54 521.385 1105.22 522.497 1107.14 523.34C1109.06 524.107 1111.17 524.49 1113.47 524.49C1115.46 524.49 1117.3 524.222 1118.99 523.685C1120.67 523.072 1122.17 522.228 1123.47 521.155ZM1173.27 483.665L1179.13 489.53C1176.22 492.213 1173.42 494.82 1170.74 497.35C1168.13 499.88 1165.37 502.525 1162.46 505.285C1165.91 509.885 1169.28 514.523 1172.58 519.2C1175.87 523.8 1179.21 528.4 1182.58 533H1171.31C1168.71 529.397 1166.06 525.87 1163.38 522.42C1160.77 518.893 1158.16 515.328 1155.56 511.725L1148.89 517.82V533H1139.11V443.645H1148.89V506.32C1153.18 502.41 1157.28 498.653 1161.19 495.05C1165.1 491.37 1169.13 487.575 1173.27 483.665Z" fill="black"/>
<path d="M165.666 233.021H183.42V246.293H165.666V276H149.318V246.293H91.0469V236.713L148.352 148.031H165.666V233.021ZM109.504 233.021H149.318V170.268L147.385 173.783L109.504 233.021ZM278.342 221.42C278.342 240.463 275.09 254.613 268.586 263.871C262.082 273.129 251.916 277.758 238.088 277.758C224.436 277.758 214.328 273.246 207.766 264.223C201.203 255.141 197.805 241.605 197.57 223.617V201.908C197.57 183.1 200.822 169.125 207.326 159.984C213.83 150.844 224.025 146.273 237.912 146.273C251.682 146.273 261.818 150.697 268.322 159.545C274.826 168.334 278.166 181.928 278.342 200.326V221.42ZM262.082 199.184C262.082 185.414 260.148 175.395 256.281 169.125C252.414 162.797 246.291 159.633 237.912 159.633C229.592 159.633 223.527 162.768 219.719 169.037C215.91 175.307 213.947 184.945 213.83 197.953V223.969C213.83 237.797 215.822 248.021 219.807 254.643C223.85 261.205 229.943 264.486 238.088 264.486C246.115 264.486 252.062 261.381 255.93 255.17C259.855 248.959 261.906 239.174 262.082 225.814V199.184ZM367.814 233.021H385.568V246.293H367.814V276H351.467V246.293H293.195V236.713L350.5 148.031H367.814V233.021ZM311.652 233.021H351.467V170.268L349.533 173.783L311.652 233.021Z" fill="#F74209"/>
<path d="M180.871 487H97.0234V475.311L141.32 426.092C147.883 418.65 152.395 412.615 154.855 407.986C157.375 403.299 158.635 398.465 158.635 393.484C158.635 386.805 156.613 381.326 152.57 377.049C148.527 372.771 143.137 370.633 136.398 370.633C128.312 370.633 122.014 372.947 117.502 377.576C113.049 382.146 110.822 388.533 110.822 396.736H94.5625C94.5625 384.959 98.3418 375.438 105.9 368.172C113.518 360.906 123.684 357.273 136.398 357.273C148.293 357.273 157.697 360.408 164.611 366.678C171.525 372.889 174.982 381.18 174.982 391.551C174.982 404.148 166.955 419.148 150.9 436.551L116.623 473.729H180.871V487ZM278.342 432.42C278.342 451.463 275.09 465.613 268.586 474.871C262.082 484.129 251.916 488.758 238.088 488.758C224.436 488.758 214.328 484.246 207.766 475.223C201.203 466.141 197.805 452.605 197.57 434.617V412.908C197.57 394.1 200.822 380.125 207.326 370.984C213.83 361.844 224.025 357.273 237.912 357.273C251.682 357.273 261.818 361.697 268.322 370.545C274.826 379.334 278.166 392.928 278.342 411.326V432.42ZM262.082 410.184C262.082 396.414 260.148 386.395 256.281 380.125C252.414 373.797 246.291 370.633 237.912 370.633C229.592 370.633 223.527 373.768 219.719 380.037C215.91 386.307 213.947 395.945 213.83 408.953V434.969C213.83 448.797 215.822 459.021 219.807 465.643C223.85 472.205 229.943 475.486 238.088 475.486C246.115 475.486 252.062 472.381 255.93 466.17C259.855 459.959 261.906 450.174 262.082 436.814V410.184ZM379.416 432.42C379.416 451.463 376.164 465.613 369.66 474.871C363.156 484.129 352.99 488.758 339.162 488.758C325.51 488.758 315.402 484.246 308.84 475.223C302.277 466.141 298.879 452.605 298.645 434.617V412.908C298.645 394.1 301.896 380.125 308.4 370.984C314.904 361.844 325.1 357.273 338.986 357.273C352.756 357.273 362.893 361.697 369.396 370.545C375.9 379.334 379.24 392.928 379.416 411.326V432.42ZM363.156 410.184C363.156 396.414 361.223 386.395 357.355 380.125C353.488 373.797 347.365 370.633 338.986 370.633C330.666 370.633 324.602 373.768 320.793 380.037C316.984 386.307 315.021 395.945 314.904 408.953V434.969C314.904 448.797 316.896 459.021 320.881 465.643C324.924 472.205 331.018 475.486 339.162 475.486C347.189 475.486 353.137 472.381 357.004 466.17C360.93 459.959 362.98 450.174 363.156 436.814V410.184Z" fill="#1DC761"/>
</svg>
