<svg width="1280" height="640" viewBox="0 0 1280 640" fill="none" xmlns="http://www.w3.org/2000/svg">
<rect width="1280" height="640" fill="#E5E5E5"/>
<rect width="1280" height="640" fill="#F7F176"/>
<path d="M536.45 234.095V269.055C533.23 270.895 529.397 272.352 524.95 273.425C520.503 274.422 515.98 274.92 511.38 274.92C504.787 274.92 498.845 273.885 493.555 271.815C488.342 269.745 483.857 266.908 480.1 263.305C476.343 259.625 473.468 255.293 471.475 250.31C469.482 245.327 468.485 239.883 468.485 233.98C468.485 227.463 469.635 221.522 471.935 216.155C474.312 210.712 477.493 206.035 481.48 202.125C485.543 198.215 490.182 195.187 495.395 193.04C500.685 190.817 506.282 189.705 512.185 189.705C516.172 189.705 520.35 190.242 524.72 191.315C529.09 192.312 532.885 193.768 536.105 195.685L530.01 205.92C528.86 205.23 527.518 204.617 525.985 204.08C524.528 203.543 522.995 203.083 521.385 202.7C519.775 202.317 518.165 202.048 516.555 201.895C514.945 201.665 513.412 201.55 511.955 201.55C507.892 201.55 503.982 202.355 500.225 203.965C496.468 205.575 493.172 207.798 490.335 210.635C487.498 213.472 485.237 216.807 483.55 220.64C481.863 224.473 481.02 228.613 481.02 233.06C481.02 237.123 481.748 240.957 483.205 244.56C484.738 248.163 486.847 251.345 489.53 254.105C492.213 256.865 495.433 259.05 499.19 260.66C502.947 262.27 507.087 263.075 511.61 263.075C513.373 263.075 515.443 262.922 517.82 262.615C520.273 262.232 522.612 261.618 524.835 260.775V244.905H508.62V234.095H536.45ZM547.125 207.53C547.125 205.69 547.777 204.157 549.08 202.93C550.46 201.703 551.917 201.09 553.45 201.09C554.984 201.09 556.402 201.703 557.705 202.93C559.009 204.157 559.66 205.69 559.66 207.53C559.66 209.37 559.009 210.903 557.705 212.13C556.402 213.28 554.984 213.855 553.45 213.855C551.917 213.855 550.46 213.28 549.08 212.13C547.777 210.903 547.125 209.37 547.125 207.53ZM558.165 274H548.39V225.93H558.165V274ZM576.114 204.77H585.889V226.045H598.769V234.785H585.889V274H576.114V234.785H567.489V226.045H576.114V204.77ZM608.102 274V190.625H620.637V226.045H662.382V190.625H675.032C675.032 191.622 675.032 193.5 675.032 196.26C675.032 198.943 675.032 202.163 675.032 205.92C675.032 209.677 675.032 213.855 675.032 218.455C675.032 222.978 674.994 227.617 674.917 232.37C674.917 237.047 674.917 241.685 674.917 246.285C674.917 250.808 674.917 254.948 674.917 258.705C674.917 262.462 674.917 265.72 674.917 268.48C674.917 271.163 674.917 273.003 674.917 274H662.382V238.005H620.637V274H608.102ZM735.864 275.035H727.584L726.434 261.695C724.671 265.605 722.179 268.825 718.959 271.355C715.816 273.885 711.791 275.15 706.884 275.15C701.978 275.15 698.068 273.847 695.154 271.24C692.318 268.557 690.823 265.068 690.669 260.775V225.93H700.444V256.405C700.598 258.782 701.441 260.813 702.974 262.5C704.584 264.187 707.038 265.145 710.334 265.375C712.634 265.375 714.743 264.992 716.659 264.225C718.576 263.382 720.224 262.27 721.604 260.89C722.984 259.51 724.058 257.862 724.824 255.945C725.591 254.028 725.974 251.92 725.974 249.62V225.93H735.864V275.035ZM801.045 250.08C801.045 253.683 800.432 257.018 799.205 260.085C797.979 263.152 796.254 265.797 794.03 268.02C791.807 270.243 789.124 272.007 785.98 273.31C782.914 274.537 779.54 275.15 775.86 275.15C773.944 275.15 772.104 274.92 770.34 274.46C768.654 274.077 767.082 273.54 765.625 272.85C764.169 272.083 762.904 271.278 761.83 270.435C760.757 269.515 759.952 268.595 759.415 267.675C759.415 268.058 759.415 268.48 759.415 268.94C759.492 269.323 759.53 269.707 759.53 270.09V274H749.64V184.645H759.53V232.945C760.144 232.025 760.949 231.105 761.945 230.185C763.019 229.188 764.245 228.307 765.625 227.54C767.082 226.697 768.692 226.007 770.455 225.47C772.219 224.933 774.174 224.665 776.32 224.665C780 224.665 783.335 225.278 786.325 226.505C789.392 227.655 791.999 229.342 794.145 231.565C796.369 233.712 798.055 236.357 799.205 239.5C800.432 242.643 801.045 246.17 801.045 250.08ZM790.35 249.85C790.35 247.627 790.005 245.595 789.315 243.755C788.625 241.838 787.629 240.19 786.325 238.81C785.022 237.43 783.45 236.357 781.61 235.59C779.77 234.747 777.7 234.325 775.4 234.325C773.1 234.325 770.954 234.747 768.96 235.59C767.044 236.357 765.395 237.43 764.015 238.81C762.635 240.19 761.524 241.838 760.68 243.755C759.914 245.595 759.53 247.627 759.53 249.85C759.53 252.073 759.914 254.143 760.68 256.06C761.524 257.977 762.635 259.625 764.015 261.005C765.395 262.385 767.044 263.497 768.96 264.34C770.954 265.107 773.1 265.49 775.4 265.49C777.7 265.49 779.77 265.107 781.61 264.34C783.45 263.497 785.022 262.385 786.325 261.005C787.629 259.548 788.625 257.9 789.315 256.06C790.005 254.143 790.35 252.073 790.35 249.85ZM893.219 274C892.835 273.157 892.299 271.93 891.609 270.32C890.919 268.71 890.114 266.87 889.194 264.8C888.35 262.653 887.392 260.353 886.319 257.9C885.322 255.37 884.287 252.763 883.214 250.08H853.774L843.884 274H831.464L868.609 186.715C869.069 187.788 869.874 189.743 871.024 192.58C872.25 195.417 873.669 198.828 875.279 202.815C876.965 206.725 878.805 211.095 880.799 215.925C882.869 220.678 884.939 225.508 887.009 230.415C889.155 235.322 891.225 240.152 893.219 244.905C895.289 249.658 897.167 254.028 898.854 258.015C900.54 262.002 901.959 265.413 903.109 268.25C904.335 271.01 905.179 272.927 905.639 274H893.219ZM858.144 239.5H878.959C877.885 236.97 876.85 234.555 875.854 232.255C874.934 229.878 874.052 227.732 873.209 225.815C872.442 223.822 871.752 222.097 871.139 220.64C870.525 219.183 870.065 218.033 869.759 217.19C869.682 217.037 869.49 216.5 869.184 215.58C868.954 214.66 868.762 213.817 868.609 213.05C868.455 213.817 868.225 214.66 867.919 215.58C867.612 216.5 867.42 217.037 867.344 217.19L858.144 239.5ZM943.671 262.155C944.745 263.458 945.741 264.723 946.661 265.95C947.658 267.1 948.655 268.327 949.651 269.63C947.505 271.317 945.09 272.658 942.406 273.655C939.723 274.652 936.81 275.15 933.666 275.15C930.14 275.15 926.805 274.498 923.661 273.195C920.595 271.815 917.911 269.975 915.611 267.675C913.311 265.375 911.471 262.692 910.091 259.625C908.788 256.558 908.136 253.3 908.136 249.85C908.136 246.4 908.788 243.142 910.091 240.075C911.471 237.008 913.311 234.363 915.611 232.14C917.911 229.84 920.595 228.038 923.661 226.735C926.805 225.355 930.14 224.665 933.666 224.665C936.886 224.665 939.838 225.163 942.521 226.16C945.281 227.157 947.773 228.498 949.996 230.185L943.671 237.66C942.368 236.587 940.873 235.782 939.186 235.245C937.5 234.632 935.66 234.325 933.666 234.325C931.366 234.325 929.258 234.747 927.341 235.59C925.425 236.357 923.738 237.43 922.281 238.81C920.901 240.19 919.828 241.838 919.061 243.755C918.295 245.595 917.911 247.627 917.911 249.85C917.911 252.073 918.295 254.143 919.061 256.06C919.828 257.9 920.901 259.548 922.281 261.005C923.738 262.385 925.425 263.497 927.341 264.34C929.258 265.107 931.366 265.49 933.666 265.49C935.66 265.49 937.5 265.222 939.186 264.685C940.873 264.072 942.368 263.228 943.671 262.155ZM963.453 204.77H973.228V226.045H986.108V234.785H973.228V274H963.453V234.785H954.828V226.045H963.453V204.77ZM992.975 207.53C992.975 205.69 993.627 204.157 994.93 202.93C996.31 201.703 997.767 201.09 999.3 201.09C1000.83 201.09 1002.25 201.703 1003.55 202.93C1004.86 204.157 1005.51 205.69 1005.51 207.53C1005.51 209.37 1004.86 210.903 1003.55 212.13C1002.25 213.28 1000.83 213.855 999.3 213.855C997.767 213.855 996.31 213.28 994.93 212.13C993.627 210.903 992.975 209.37 992.975 207.53ZM1004.01 274H994.24V225.93H1004.01V274ZM1014.49 249.85C1014.49 246.4 1015.14 243.142 1016.44 240.075C1017.82 237.008 1019.66 234.363 1021.96 232.14C1024.26 229.84 1026.95 228.038 1030.01 226.735C1033.16 225.355 1036.53 224.665 1040.13 224.665C1043.74 224.665 1047.07 225.355 1050.14 226.735C1053.28 228.038 1055.97 229.84 1058.19 232.14C1060.49 234.363 1062.25 237.008 1063.48 240.075C1064.78 243.142 1065.43 246.4 1065.43 249.85C1065.43 253.3 1064.78 256.558 1063.48 259.625C1062.25 262.692 1060.49 265.375 1058.19 267.675C1055.97 269.975 1053.28 271.815 1050.14 273.195C1047.07 274.498 1043.7 275.15 1040.02 275.15C1036.49 275.15 1033.16 274.537 1030.01 273.31C1026.95 272.083 1024.26 270.358 1021.96 268.135C1019.66 265.912 1017.82 263.267 1016.44 260.2C1015.14 257.057 1014.49 253.607 1014.49 249.85ZM1024.26 249.965C1024.26 252.112 1024.65 254.143 1025.41 256.06C1026.26 257.9 1027.37 259.548 1028.75 261.005C1030.21 262.385 1031.85 263.497 1033.69 264.34C1035.61 265.107 1037.64 265.49 1039.79 265.49C1041.94 265.49 1043.97 265.107 1045.88 264.34C1047.8 263.497 1049.45 262.385 1050.83 261.005C1052.29 259.548 1053.44 257.9 1054.28 256.06C1055.12 254.143 1055.54 252.112 1055.54 249.965C1055.54 247.818 1055.12 245.787 1054.28 243.87C1053.44 241.953 1052.29 240.305 1050.83 238.925C1049.45 237.468 1047.8 236.357 1045.88 235.59C1043.97 234.747 1041.94 234.325 1039.79 234.325C1037.64 234.325 1035.61 234.747 1033.69 235.59C1031.85 236.357 1030.21 237.468 1028.75 238.925C1027.37 240.305 1026.26 241.953 1025.41 243.87C1024.65 245.787 1024.26 247.818 1024.26 249.965ZM1075.89 225.93H1084.51C1084.66 228.307 1084.78 230.492 1084.86 232.485C1085.01 234.402 1085.16 236.318 1085.32 238.235C1087.08 234.095 1089.57 230.798 1092.79 228.345C1096.09 225.892 1100.11 224.665 1104.87 224.665C1109.7 224.665 1113.57 226.007 1116.48 228.69C1119.39 231.373 1120.93 234.823 1121.08 239.04V274H1111.19V243.525C1111.04 241.072 1110.19 239.002 1108.66 237.315C1107.13 235.552 1104.71 234.593 1101.42 234.44C1099.12 234.44 1097.01 234.862 1095.09 235.705C1093.17 236.472 1091.53 237.545 1090.15 238.925C1088.77 240.305 1087.65 241.953 1086.81 243.87C1086.04 245.787 1085.66 247.895 1085.66 250.195V274H1075.89V225.93ZM1161.19 230.185L1156.02 237.085C1155.94 237.008 1155.67 236.817 1155.21 236.51C1154.75 236.203 1154.14 235.897 1153.37 235.59C1152.68 235.283 1151.84 235.015 1150.84 234.785C1149.92 234.478 1148.96 234.325 1147.97 234.325C1146.66 234.325 1145.36 234.632 1144.06 235.245C1142.83 235.858 1142.22 237.008 1142.22 238.695C1142.22 240.152 1142.71 241.34 1143.71 242.26C1144.78 243.18 1146.09 244.023 1147.62 244.79C1149.15 245.48 1150.8 246.208 1152.57 246.975C1154.41 247.742 1156.09 248.7 1157.63 249.85C1159.16 250.923 1160.42 252.303 1161.42 253.99C1162.49 255.6 1163.03 257.67 1163.03 260.2C1163.03 264.493 1161.54 268.058 1158.55 270.895C1155.63 273.655 1151.61 275.035 1146.47 275.035C1143.48 275.035 1140.53 274.537 1137.62 273.54C1134.78 272.467 1132.48 270.933 1130.72 268.94C1131.25 268.403 1131.83 267.713 1132.44 266.87C1133.13 266.027 1133.78 265.222 1134.4 264.455C1135.09 263.688 1135.62 263.075 1136.01 262.615C1136.47 262.078 1136.73 261.81 1136.81 261.81C1136.81 261.887 1137.08 262.117 1137.62 262.5C1138.23 262.883 1139 263.305 1139.92 263.765C1140.84 264.148 1141.87 264.532 1143.02 264.915C1144.17 265.222 1145.32 265.375 1146.47 265.375C1148.31 265.375 1149.88 264.915 1151.19 263.995C1152.49 263.075 1153.14 261.848 1153.14 260.315C1153.14 258.935 1152.6 257.862 1151.53 257.095C1150.53 256.252 1149.27 255.485 1147.74 254.795C1146.2 254.105 1144.52 253.415 1142.68 252.725C1140.84 251.958 1139.15 251 1137.62 249.85C1136.08 248.7 1134.78 247.282 1133.71 245.595C1132.71 243.832 1132.21 241.57 1132.21 238.81C1132.21 236.203 1132.67 234.018 1133.59 232.255C1134.59 230.492 1135.81 229.073 1137.27 228C1138.8 226.85 1140.49 226.045 1142.33 225.585C1144.17 225.048 1145.93 224.78 1147.62 224.78C1149.84 224.78 1152.22 225.24 1154.75 226.16C1157.28 227.08 1159.43 228.422 1161.19 230.185ZM470.9 357.645H480.675V410.545C482.362 406.712 484.738 403.645 487.805 401.345C490.872 398.968 494.82 397.742 499.65 397.665C504.557 397.588 508.467 398.892 511.38 401.575C514.37 404.258 515.942 407.747 516.095 412.04V447H506.205V416.525C506.052 414.072 505.208 412.002 503.675 410.315C502.142 408.552 499.727 407.593 496.43 407.44C494.13 407.44 492.022 407.862 490.105 408.705C488.188 409.472 486.54 410.545 485.16 411.925C483.78 413.305 482.668 414.953 481.825 416.87C481.058 418.787 480.675 420.895 480.675 423.195V447H470.9V357.645ZM574.146 448.035H565.866L564.716 434.695C562.952 438.605 560.461 441.825 557.241 444.355C554.097 446.885 550.072 448.15 545.166 448.15C540.259 448.15 536.349 446.847 533.436 444.24C530.599 441.557 529.104 438.068 528.951 433.775V398.93H538.726V429.405C538.879 431.782 539.722 433.813 541.256 435.5C542.866 437.187 545.319 438.145 548.616 438.375C550.916 438.375 553.024 437.992 554.941 437.225C556.857 436.382 558.506 435.27 559.886 433.89C561.266 432.51 562.339 430.862 563.106 428.945C563.872 427.028 564.256 424.92 564.256 422.62V398.93H574.146V448.035ZM584.701 423.08C584.701 419.477 585.353 416.142 586.656 413.075C587.96 409.932 589.723 407.248 591.946 405.025C594.17 402.725 596.776 400.923 599.766 399.62C602.756 398.317 605.938 397.665 609.311 397.665C611.918 397.665 614.218 398.01 616.211 398.7C618.281 399.39 620.006 400.195 621.386 401.115C622.766 402.035 623.84 402.955 624.606 403.875C625.45 404.718 625.986 405.332 626.216 405.715C626.216 404.642 626.293 403.53 626.446 402.38C626.6 401.153 626.676 400.003 626.676 398.93H636.106V444.815C636.106 452.788 633.768 458.998 629.091 463.445C624.415 467.892 618.09 470.115 610.116 470.115C607.356 470.115 604.865 469.808 602.641 469.195C600.495 468.658 598.501 467.93 596.661 467.01C594.898 466.09 593.25 465.017 591.716 463.79C590.26 462.563 588.803 461.298 587.346 459.995L593.671 453.325C596.048 455.548 598.463 457.312 600.916 458.615C603.446 459.918 606.436 460.57 609.886 460.57C615.023 460.57 619.01 459.343 621.846 456.89C624.683 454.437 626.14 451.025 626.216 446.655V443.32C626.216 442.707 626.293 442.055 626.446 441.365C626.6 440.598 626.676 440.023 626.676 439.64C625.986 440.56 625.105 441.557 624.031 442.63C623.035 443.627 621.846 444.547 620.466 445.39C619.086 446.157 617.476 446.808 615.636 447.345C613.796 447.882 611.726 448.15 609.426 448.15C605.823 448.15 602.526 447.498 599.536 446.195C596.546 444.892 593.94 443.128 591.716 440.905C589.493 438.605 587.768 435.96 586.541 432.97C585.315 429.903 584.701 426.607 584.701 423.08ZM594.591 422.85C594.591 425.073 594.975 427.143 595.741 429.06C596.585 430.977 597.696 432.625 599.076 434.005C600.456 435.385 602.105 436.497 604.021 437.34C605.938 438.107 608.046 438.49 610.346 438.49C612.646 438.49 614.755 438.107 616.671 437.34C618.665 436.497 620.351 435.385 621.731 434.005C623.188 432.548 624.3 430.9 625.066 429.06C625.833 427.143 626.216 425.073 626.216 422.85C626.216 420.627 625.833 418.595 625.066 416.755C624.3 414.838 623.188 413.19 621.731 411.81C620.351 410.43 618.665 409.357 616.671 408.59C614.755 407.747 612.646 407.325 610.346 407.325C608.046 407.325 605.938 407.747 604.021 408.59C602.105 409.357 600.456 410.43 599.076 411.81C597.696 413.19 596.585 414.838 595.741 416.755C594.975 418.595 594.591 420.627 594.591 422.85ZM646.579 422.85C646.579 419.4 647.23 416.142 648.534 413.075C649.914 410.008 651.754 407.363 654.054 405.14C656.354 402.84 659.037 401.038 662.104 399.735C665.247 398.355 668.62 397.665 672.224 397.665C675.827 397.665 679.162 398.355 682.229 399.735C685.372 401.038 688.055 402.84 690.279 405.14C692.579 407.363 694.342 410.008 695.569 413.075C696.872 416.142 697.524 419.4 697.524 422.85C697.524 426.3 696.872 429.558 695.569 432.625C694.342 435.692 692.579 438.375 690.279 440.675C688.055 442.975 685.372 444.815 682.229 446.195C679.162 447.498 675.789 448.15 672.109 448.15C668.582 448.15 665.247 447.537 662.104 446.31C659.037 445.083 656.354 443.358 654.054 441.135C651.754 438.912 649.914 436.267 648.534 433.2C647.23 430.057 646.579 426.607 646.579 422.85ZM656.354 422.965C656.354 425.112 656.737 427.143 657.504 429.06C658.347 430.9 659.459 432.548 660.839 434.005C662.295 435.385 663.944 436.497 665.784 437.34C667.7 438.107 669.732 438.49 671.879 438.49C674.025 438.49 676.057 438.107 677.974 437.34C679.89 436.497 681.539 435.385 682.919 434.005C684.375 432.548 685.525 430.9 686.369 429.06C687.212 427.143 687.634 425.112 687.634 422.965C687.634 420.818 687.212 418.787 686.369 416.87C685.525 414.953 684.375 413.305 682.919 411.925C681.539 410.468 679.89 409.357 677.974 408.59C676.057 407.747 674.025 407.325 671.879 407.325C669.732 407.325 667.7 407.747 665.784 408.59C663.944 409.357 662.295 410.468 660.839 411.925C659.459 413.305 658.347 414.953 657.504 416.87C656.737 418.787 656.354 420.818 656.354 422.965ZM707.4 427.105V416.87H728.79V427.105H707.4ZM751.894 447H742.119V357.645H751.894V447ZM764.547 380.53C764.547 378.69 765.199 377.157 766.502 375.93C767.882 374.703 769.339 374.09 770.872 374.09C772.405 374.09 773.824 374.703 775.127 375.93C776.43 377.157 777.082 378.69 777.082 380.53C777.082 382.37 776.43 383.903 775.127 385.13C773.824 386.28 772.405 386.855 770.872 386.855C769.339 386.855 767.882 386.28 766.502 385.13C765.199 383.903 764.547 382.37 764.547 380.53ZM775.587 447H765.812V398.93H775.587V447ZM789.396 398.93H798.021C798.174 401.307 798.289 403.492 798.366 405.485C798.519 407.402 798.673 409.318 798.826 411.235C800.589 407.095 803.081 403.798 806.301 401.345C809.598 398.892 813.623 397.665 818.376 397.665C823.206 397.665 827.078 399.007 829.991 401.69C832.904 404.373 834.438 407.823 834.591 412.04V447H824.701V416.525C824.548 414.072 823.704 412.002 822.171 410.315C820.638 408.552 818.223 407.593 814.926 407.44C812.626 407.44 810.518 407.862 808.601 408.705C806.684 409.472 805.036 410.545 803.656 411.925C802.276 413.305 801.164 414.953 800.321 416.87C799.554 418.787 799.171 420.895 799.171 423.195V447H789.396V398.93ZM882.062 397.665L887.927 403.53C885.014 406.213 882.215 408.82 879.532 411.35C876.925 413.88 874.165 416.525 871.252 419.285C874.702 423.885 878.075 428.523 881.372 433.2C884.669 437.8 888.004 442.4 891.377 447H880.107C877.5 443.397 874.855 439.87 872.172 436.42C869.565 432.893 866.959 429.328 864.352 425.725L857.682 431.82V447H847.907V357.645H857.682V420.32C861.975 416.41 866.077 412.653 869.987 409.05C873.897 405.37 877.922 401.575 882.062 397.665ZM897.083 427.105V416.87H918.473V427.105H897.083ZM963.886 435.155C964.959 436.458 965.956 437.723 966.876 438.95C967.873 440.1 968.869 441.327 969.866 442.63C967.719 444.317 965.304 445.658 962.621 446.655C959.938 447.652 957.024 448.15 953.881 448.15C950.354 448.15 947.019 447.498 943.876 446.195C940.809 444.815 938.126 442.975 935.826 440.675C933.526 438.375 931.686 435.692 930.306 432.625C929.003 429.558 928.351 426.3 928.351 422.85C928.351 419.4 929.003 416.142 930.306 413.075C931.686 410.008 933.526 407.363 935.826 405.14C938.126 402.84 940.809 401.038 943.876 399.735C947.019 398.355 950.354 397.665 953.881 397.665C957.101 397.665 960.053 398.163 962.736 399.16C965.496 400.157 967.988 401.498 970.211 403.185L963.886 410.66C962.583 409.587 961.088 408.782 959.401 408.245C957.714 407.632 955.874 407.325 953.881 407.325C951.581 407.325 949.473 407.747 947.556 408.59C945.639 409.357 943.953 410.43 942.496 411.81C941.116 413.19 940.043 414.838 939.276 416.755C938.509 418.595 938.126 420.627 938.126 422.85C938.126 425.073 938.509 427.143 939.276 429.06C940.043 430.9 941.116 432.548 942.496 434.005C943.953 435.385 945.639 436.497 947.556 437.34C949.473 438.107 951.581 438.49 953.881 438.49C955.874 438.49 957.714 438.222 959.401 437.685C961.088 437.072 962.583 436.228 963.886 435.155ZM979.528 357.645H989.303V410.545C990.99 406.712 993.366 403.645 996.433 401.345C999.5 398.968 1003.45 397.742 1008.28 397.665C1013.18 397.588 1017.09 398.892 1020.01 401.575C1023 404.258 1024.57 407.747 1024.72 412.04V447H1014.83V416.525C1014.68 414.072 1013.84 412.002 1012.3 410.315C1010.77 408.552 1008.35 407.593 1005.06 407.44C1002.76 407.44 1000.65 407.862 998.733 408.705C996.816 409.472 995.168 410.545 993.788 411.925C992.408 413.305 991.296 414.953 990.453 416.87C989.686 418.787 989.303 420.895 989.303 423.195V447H979.528V357.645ZM1078.75 441.365C1076.45 443.435 1073.65 445.083 1070.35 446.31C1067.06 447.537 1063.68 448.15 1060.23 448.15C1056.71 448.15 1053.37 447.498 1050.23 446.195C1047.16 444.815 1044.48 443.013 1042.18 440.79C1039.88 438.49 1038.04 435.807 1036.66 432.74C1035.36 429.673 1034.7 426.415 1034.7 422.965C1034.7 419.515 1035.36 416.257 1036.66 413.19C1038.04 410.123 1039.88 407.44 1042.18 405.14C1044.48 402.84 1047.12 401.038 1050.11 399.735C1053.18 398.355 1056.44 397.665 1059.89 397.665C1065.33 397.665 1070.05 399.313 1074.03 402.61C1078.1 405.83 1081.01 410.085 1082.77 415.375C1080.4 416.218 1077.68 417.253 1074.61 418.48C1071.54 419.707 1068.36 421.01 1065.06 422.39C1061.77 423.693 1058.47 424.997 1055.17 426.3C1051.88 427.603 1048.81 428.792 1045.97 429.865C1047.28 432.472 1049.16 434.58 1051.61 436.19C1054.14 437.723 1056.94 438.49 1060 438.49C1062.07 438.49 1064.14 438.107 1066.21 437.34C1068.36 436.573 1070.09 435.538 1071.39 434.235L1078.75 441.365ZM1070.47 413.075C1069.55 411.158 1068.09 409.74 1066.1 408.82C1064.11 407.823 1062.07 407.325 1060 407.325C1057.78 407.325 1055.71 407.747 1053.79 408.59C1051.95 409.433 1050.34 410.583 1048.96 412.04C1047.58 413.42 1046.47 415.03 1045.63 416.87C1044.86 418.71 1044.48 420.588 1044.48 422.505C1044.48 422.888 1044.48 423.157 1044.48 423.31C1044.56 423.463 1044.59 423.578 1044.59 423.655C1046.59 422.888 1048.73 422.045 1051.03 421.125C1053.41 420.128 1055.75 419.17 1058.05 418.25C1060.35 417.253 1062.57 416.333 1064.72 415.49C1066.87 414.57 1068.78 413.765 1070.47 413.075ZM1123.47 435.155C1124.54 436.458 1125.54 437.723 1126.46 438.95C1127.46 440.1 1128.45 441.327 1129.45 442.63C1127.3 444.317 1124.89 445.658 1122.21 446.655C1119.52 447.652 1116.61 448.15 1113.47 448.15C1109.94 448.15 1106.6 447.498 1103.46 446.195C1100.39 444.815 1097.71 442.975 1095.41 440.675C1093.11 438.375 1091.27 435.692 1089.89 432.625C1088.59 429.558 1087.94 426.3 1087.94 422.85C1087.94 419.4 1088.59 416.142 1089.89 413.075C1091.27 410.008 1093.11 407.363 1095.41 405.14C1097.71 402.84 1100.39 401.038 1103.46 399.735C1106.6 398.355 1109.94 397.665 1113.47 397.665C1116.69 397.665 1119.64 398.163 1122.32 399.16C1125.08 400.157 1127.57 401.498 1129.8 403.185L1123.47 410.66C1122.17 409.587 1120.67 408.782 1118.99 408.245C1117.3 407.632 1115.46 407.325 1113.47 407.325C1111.17 407.325 1109.06 407.747 1107.14 408.59C1105.22 409.357 1103.54 410.43 1102.08 411.81C1100.7 413.19 1099.63 414.838 1098.86 416.755C1098.09 418.595 1097.71 420.627 1097.71 422.85C1097.71 425.073 1098.09 427.143 1098.86 429.06C1099.63 430.9 1100.7 432.548 1102.08 434.005C1103.54 435.385 1105.22 436.497 1107.14 437.34C1109.06 438.107 1111.17 438.49 1113.47 438.49C1115.46 438.49 1117.3 438.222 1118.99 437.685C1120.67 437.072 1122.17 436.228 1123.47 435.155ZM1173.27 397.665L1179.13 403.53C1176.22 406.213 1173.42 408.82 1170.74 411.35C1168.13 413.88 1165.37 416.525 1162.46 419.285C1165.91 423.885 1169.28 428.523 1172.58 433.2C1175.87 437.8 1179.21 442.4 1182.58 447H1171.31C1168.71 443.397 1166.06 439.87 1163.38 436.42C1160.77 432.893 1158.16 429.328 1155.56 425.725L1148.89 431.82V447H1139.11V357.645H1148.89V420.32C1153.18 416.41 1157.28 412.653 1161.19 409.05C1165.1 405.37 1169.13 401.575 1173.27 397.665Z" fill="black"/>
<path d="M464 288.375H1166.6V294.125H464V288.375Z" fill="black"/>
<path d="M165.666 233.021H183.42V246.293H165.666V276H149.318V246.293H91.0469V236.713L148.352 148.031H165.666V233.021ZM109.504 233.021H149.318V170.268L147.385 173.783L109.504 233.021ZM278.342 221.42C278.342 240.463 275.09 254.613 268.586 263.871C262.082 273.129 251.916 277.758 238.088 277.758C224.436 277.758 214.328 273.246 207.766 264.223C201.203 255.141 197.805 241.605 197.57 223.617V201.908C197.57 183.1 200.822 169.125 207.326 159.984C213.83 150.844 224.025 146.273 237.912 146.273C251.682 146.273 261.818 150.697 268.322 159.545C274.826 168.334 278.166 181.928 278.342 200.326V221.42ZM262.082 199.184C262.082 185.414 260.148 175.395 256.281 169.125C252.414 162.797 246.291 159.633 237.912 159.633C229.592 159.633 223.527 162.768 219.719 169.037C215.91 175.307 213.947 184.945 213.83 197.953V223.969C213.83 237.797 215.822 248.021 219.807 254.643C223.85 261.205 229.943 264.486 238.088 264.486C246.115 264.486 252.062 261.381 255.93 255.17C259.855 248.959 261.906 239.174 262.082 225.814V199.184ZM367.814 233.021H385.568V246.293H367.814V276H351.467V246.293H293.195V236.713L350.5 148.031H367.814V233.021ZM311.652 233.021H351.467V170.268L349.533 173.783L311.652 233.021Z" fill="#F74209"/>
<path d="M180.871 487H97.0234V475.311L141.32 426.092C147.883 418.65 152.395 412.615 154.855 407.986C157.375 403.299 158.635 398.465 158.635 393.484C158.635 386.805 156.613 381.326 152.57 377.049C148.527 372.771 143.137 370.633 136.398 370.633C128.312 370.633 122.014 372.947 117.502 377.576C113.049 382.146 110.822 388.533 110.822 396.736H94.5625C94.5625 384.959 98.3418 375.438 105.9 368.172C113.518 360.906 123.684 357.273 136.398 357.273C148.293 357.273 157.697 360.408 164.611 366.678C171.525 372.889 174.982 381.18 174.982 391.551C174.982 404.148 166.955 419.148 150.9 436.551L116.623 473.729H180.871V487ZM278.342 432.42C278.342 451.463 275.09 465.613 268.586 474.871C262.082 484.129 251.916 488.758 238.088 488.758C224.436 488.758 214.328 484.246 207.766 475.223C201.203 466.141 197.805 452.605 197.57 434.617V412.908C197.57 394.1 200.822 380.125 207.326 370.984C213.83 361.844 224.025 357.273 237.912 357.273C251.682 357.273 261.818 361.697 268.322 370.545C274.826 379.334 278.166 392.928 278.342 411.326V432.42ZM262.082 410.184C262.082 396.414 260.148 386.395 256.281 380.125C252.414 373.797 246.291 370.633 237.912 370.633C229.592 370.633 223.527 373.768 219.719 380.037C215.91 386.307 213.947 395.945 213.83 408.953V434.969C213.83 448.797 215.822 459.021 219.807 465.643C223.85 472.205 229.943 475.486 238.088 475.486C246.115 475.486 252.062 472.381 255.93 466.17C259.855 459.959 261.906 450.174 262.082 436.814V410.184ZM379.416 432.42C379.416 451.463 376.164 465.613 369.66 474.871C363.156 484.129 352.99 488.758 339.162 488.758C325.51 488.758 315.402 484.246 308.84 475.223C302.277 466.141 298.879 452.605 298.645 434.617V412.908C298.645 394.1 301.896 380.125 308.4 370.984C314.904 361.844 325.1 357.273 338.986 357.273C352.756 357.273 362.893 361.697 369.396 370.545C375.9 379.334 379.24 392.928 379.416 411.326V432.42ZM363.156 410.184C363.156 396.414 361.223 386.395 357.355 380.125C353.488 373.797 347.365 370.633 338.986 370.633C330.666 370.633 324.602 373.768 320.793 380.037C316.984 386.307 315.021 395.945 314.904 408.953V434.969C314.904 448.797 316.896 459.021 320.881 465.643C324.924 472.205 331.018 475.486 339.162 475.486C347.189 475.486 353.137 472.381 357.004 466.17C360.93 459.959 362.98 450.174 363.156 436.814V410.184Z" fill="#1DC761"/>
</svg>
